<?xml version="1.0" encoding="UTF-8"?>
<svg width="500px" height="209px" viewBox="0 0 500 209" version="1.1" xmlns="http://www.w3.org/2000/svg" xmlns:xlink="http://www.w3.org/1999/xlink">
    <title>Half Letter@1x</title>
    <g id="Half-Letter" stroke="none" stroke-width="1" fill="none" fill-rule="evenodd">
        <g id="Group" transform="translate(30.1668, 23.1068)" fill-rule="nonzero">
            <g id="WICKED-GOOD-MEDIA-LL" transform="translate(48.8332, 147.8932)" fill="#222222">
                <polygon id="Path" points="10.5666979 2.44242847 5.88701769 13.9609211 5.59765581 13.9609211 0 0.17585485 1.10755757 0.17585485 5.71739176 11.4989532 10.3970719 0.17585485 10.7263458 0.17585485 15.38607 11.4989532 20.0058822 0.17585485 21.1134397 0.17585485 15.5058059 13.9609211 15.246378 13.9609211"></polygon>
                <polygon id="Path" points="30.8988627 0.17585485 30.8988627 13.8241452 29.8212392 13.8241452 29.8212392 0.17585485"></polygon>
                <path d="M52.837485,1.14305652 L52.837485,2.29588276 C51.1478776,1.41660851 49.4915303,0.976971389 47.8684429,0.976971389 C46.1389236,0.976971389 44.6921142,1.55338451 43.5280146,2.70621075 C42.3639151,3.85903699 41.7818653,5.2984415 41.7818653,7.02442428 C41.7818653,8.7699465 42.3672411,10.2060944 43.5379926,11.3328681 C44.7087442,12.4596418 46.2021176,13.0230286 48.0181129,13.0230286 C49.5347683,13.0230286 51.1877896,12.5573389 52.9771769,11.6259595 L52.9771769,12.7201675 C51.3274816,13.5733892 49.6811122,14 48.0380689,14 C45.9160817,14 44.1483134,13.3340312 42.7347639,12.0020935 C41.3212145,10.6701559 40.6144398,9.01093278 40.6144398,7.02442428 C40.6144398,5.02488951 41.3361815,3.35426843 42.7796649,2.01256106 C44.2231484,0.670853687 45.9426897,0 47.9382889,0 C49.5081603,0 51.1412256,0.381018842 52.837485,1.14305652 Z" id="Path"></path>
                <polygon id="Path" points="71.2538746 0.17585485 64.5885732 6.98534543 71.8924664 13.8241452 70.5155029 13.8241452 63.2215878 7.00488486 63.2215878 13.8241452 62.1439642 13.8241452 62.1439642 0.17585485 63.2215878 0.17585485 63.2215878 6.965806 69.9068451 0.17585485"></polygon>
                <polygon id="Path" points="87.814357 0.17585485 87.814357 1.0551291 81.2887475 1.0551291 81.2887475 6.51639916 87.644731 6.51639916 87.644731 7.40544313 81.2887475 7.40544313 81.2887475 12.9448709 87.9740049 12.9448709 87.9740049 13.8241452 80.2111239 13.8241452 80.2111239 0.17585485"></polygon>
                <path d="M97.3503301,0.17585485 L102.22957,0.17585485 C104.697461,0.17585485 106.581639,0.810886253 107.882105,2.08094906 C109.18257,3.35101186 109.832803,4.9923238 109.832803,7.00488486 C109.832803,8.97836706 109.189222,10.608281 107.902061,11.8946267 C106.614899,13.1809723 104.787263,13.8241452 102.419152,13.8241452 L97.3503301,13.8241452 L97.3503301,0.17585485 Z M98.4279536,1.0551291 L98.4279536,12.9448709 L102.359284,12.9448709 C104.161975,12.9448709 105.663664,12.4026518 106.864349,11.3182135 C108.065035,10.2337753 108.665378,8.79599907 108.665378,7.00488486 C108.665378,5.2528495 108.07335,3.8232147 106.889294,2.71598046 C105.705239,1.60874622 104.171953,1.0551291 102.289438,1.0551291 L98.4279536,1.0551291 Z" id="Shape"></path>
                <path d="M144.101237,1.16259595 L144.101237,2.35450105 C142.451542,1.43614794 140.805173,0.976971389 139.162129,0.976971389 C137.39935,0.976971389 135.932585,1.55012794 134.761833,2.69644103 C133.591082,3.84275413 133.005706,5.27890207 133.005706,7.00488486 C133.005706,8.73086764 133.58443,10.1653873 134.741877,11.3084438 C135.899325,12.4515003 137.472522,13.0230286 139.461469,13.0230286 C140.898301,13.0230286 142.172158,12.7429635 143.283042,12.1828332 L143.283042,8.49965108 L140.339533,8.49965108 L140.339533,7.62037683 L144.370643,7.62037683 L144.370643,12.8471738 C142.7276,13.6157246 141.077905,14 139.421557,14 C137.259658,14 135.455304,13.3291463 134.008494,11.9874389 C132.561685,10.6457316 131.83828,8.97185392 131.83828,6.965806 C131.83828,4.97278437 132.548381,3.31356129 133.968582,1.98813678 C135.388784,0.662712259 137.173182,0 139.321777,0 C140.785217,0 142.37837,0.387531984 144.101237,1.16259595 Z" id="Path"></path>
                <path d="M161.06084,0 C163.122959,0 164.870771,0.678995115 166.304277,2.03698535 C167.737782,3.39497558 168.454535,5.05094208 168.454535,7.00488486 C168.454535,8.95231449 167.737782,10.6050244 166.304277,11.9630147 C164.870771,13.3210049 163.122959,14 161.06084,14 C159.005372,14 157.264212,13.3210049 155.837359,11.9630147 C154.410505,10.6050244 153.697079,8.95231449 153.697079,7.00488486 C153.697079,5.05094208 154.410505,3.39497558 155.837359,2.03698535 C157.264212,0.678995115 159.005372,0 161.06084,0 Z M161.100752,13.0230286 C162.836923,13.0230286 164.302025,12.4417306 165.496059,11.2791347 C166.690092,10.1165387 167.287109,8.69178879 167.287109,7.00488486 C167.287109,5.31146778 166.690092,3.88346127 165.496059,2.72086532 C164.302025,1.55826936 162.836923,0.976971389 161.100752,0.976971389 C159.357928,0.976971389 157.882848,1.55826936 156.67551,2.72086532 C155.468173,3.88346127 154.864504,5.31146778 154.864504,7.00488486 C154.864504,8.69178879 155.468173,10.1165387 156.67551,11.2791347 C157.882848,12.4417306 159.357928,13.0230286 161.100752,13.0230286 Z" id="Shape"></path>
                <path d="M185.024995,0 C187.087114,0 188.834927,0.678995115 190.268432,2.03698535 C191.701937,3.39497558 192.41869,5.05094208 192.41869,7.00488486 C192.41869,8.95231449 191.701937,10.6050244 190.268432,11.9630147 C188.834927,13.3210049 187.087114,14 185.024995,14 C182.969528,14 181.228368,13.3210049 179.801514,11.9630147 C178.374661,10.6050244 177.661234,8.95231449 177.661234,7.00488486 C177.661234,5.05094208 178.374661,3.39497558 179.801514,2.03698535 C181.228368,0.678995115 182.969528,0 185.024995,0 Z M185.064907,13.0230286 C186.801078,13.0230286 188.266181,12.4417306 189.460214,11.2791347 C190.654248,10.1165387 191.251265,8.69178879 191.251265,7.00488486 C191.251265,5.31146778 190.654248,3.88346127 189.460214,2.72086532 C188.266181,1.55826936 186.801078,0.976971389 185.064907,0.976971389 C183.322084,0.976971389 181.847003,1.55826936 180.639666,2.72086532 C179.432328,3.88346127 178.828659,5.31146778 178.828659,7.00488486 C178.828659,8.69178879 179.432328,10.1165387 180.639666,11.2791347 C181.847003,12.4417306 183.322084,13.0230286 185.064907,13.0230286 Z" id="Shape"></path>
                <path d="M202.204113,0.17585485 L207.083353,0.17585485 C209.551244,0.17585485 211.435423,0.810886253 212.735888,2.08094906 C214.036354,3.35101186 214.686586,4.9923238 214.686586,7.00488486 C214.686586,8.97836706 214.043006,10.608281 212.755844,11.8946267 C211.468683,13.1809723 209.641046,13.8241452 207.272935,13.8241452 L202.204113,13.8241452 L202.204113,0.17585485 Z M203.281737,1.0551291 L203.281737,12.9448709 L207.213067,12.9448709 C209.015759,12.9448709 210.517447,12.4026518 211.718132,11.3182135 C212.918818,10.2337753 213.519161,8.79599907 213.519161,7.00488486 C213.519161,5.2528495 212.927133,3.8232147 211.743077,2.71598046 C210.559022,1.60874622 209.025737,1.0551291 207.143221,1.0551291 L203.281737,1.0551291 Z" id="Shape"></path>
                <polygon id="Path" points="243.646727 6.51639916 248.955021 0.17585485 250.042622 0.17585485 250.042622 13.8241452 248.955021 13.8241452 248.955021 1.71946964 243.646727 8.09909281 238.328455 1.71946964 238.328455 13.8241452 237.250831 13.8241452 237.250831 0.17585485 238.328455 0.17585485"></polygon>
                <polygon id="Path" points="268.010002 0.17585485 268.010002 1.0551291 261.484392 1.0551291 261.484392 6.51639916 267.840376 6.51639916 267.840376 7.40544313 261.484392 7.40544313 261.484392 12.9448709 268.16965 12.9448709 268.16965 13.8241452 260.406769 13.8241452 260.406769 0.17585485"></polygon>
                <path d="M277.545975,0.17585485 L282.425215,0.17585485 C284.893106,0.17585485 286.777284,0.810886253 288.07775,2.08094906 C289.378215,3.35101186 290.028448,4.9923238 290.028448,7.00488486 C290.028448,8.97836706 289.384867,10.608281 288.097706,11.8946267 C286.810544,13.1809723 284.982908,13.8241452 282.614797,13.8241452 L277.545975,13.8241452 L277.545975,0.17585485 Z M278.623599,1.0551291 L278.623599,12.9448709 L282.554929,12.9448709 C284.35762,12.9448709 285.859309,12.4026518 287.059994,11.3182135 C288.26068,10.2337753 288.861023,8.79599907 288.861023,7.00488486 C288.861023,5.2528495 288.268995,3.8232147 287.084939,2.71598046 C285.900884,1.60874622 284.367598,1.0551291 282.485083,1.0551291 L278.623599,1.0551291 Z" id="Shape"></path>
                <polygon id="Path" points="300.871539 0.17585485 300.871539 13.8241452 299.793915 13.8241452 299.793915 0.17585485"></polygon>
                <path d="M316.703627,0.0781577111 L323.139435,13.8241452 L322.011921,13.8241452 L319.806784,9.10537334 L313.001791,9.10537334 L310.796654,13.8241452 L309.66914,13.8241452 L316.104948,0.0781577111 L316.703627,0.0781577111 Z M319.397686,8.22609909 L316.394309,1.79762736 L313.410889,8.22609909 L319.397686,8.22609909 Z" id="Shape"></path>
                <polygon id="Path" points="345.873306 0.17585485 345.873306 12.9448709 352.768101 12.9448709 352.768101 13.8241452 344.795682 13.8241452 344.795682 0.17585485"></polygon>
                <polygon id="Path" points="362.603414 0.17585485 362.603414 12.9448709 369.498209 12.9448709 369.498209 13.8241452 361.52579 13.8241452 361.52579 0.17585485"></polygon>
                <path d="M389.860308,1.14305652 L389.860308,2.29588276 C388.170701,1.41660851 386.514353,0.976971389 384.891266,0.976971389 C383.161747,0.976971389 381.714937,1.55338451 380.550838,2.70621075 C379.386738,3.85903699 378.804688,5.2984415 378.804688,7.02442428 C378.804688,8.7699465 379.390064,10.2060944 380.560816,11.3328681 C381.731567,12.4596418 383.224941,13.0230286 385.040936,13.0230286 C386.557591,13.0230286 388.210613,12.5573389 390,11.6259595 L390,12.7201675 C388.350305,13.5733892 386.703935,14 385.060892,14 C382.938905,14 381.171136,13.3340312 379.757587,12.0020935 C378.344038,10.6701559 377.637263,9.01093278 377.637263,7.02442428 C377.637263,5.02488951 378.359005,3.35426843 379.802488,2.01256106 C381.245971,0.670853687 382.965513,0 384.961112,0 C386.530983,0 388.164049,0.381018842 389.860308,1.14305652 Z" id="Path"></path>
            </g>
            <polygon id="Path" fill="#222222" points="92.3153792 28.7582252 51.4316088 131.534271 48.9036145 131.534271 -5.68434189e-14 8.53427055 9.67611623 8.53427055 49.9496811 109.566872 90.8334515 8.53427055 93.7101347 8.53427055 134.419561 109.566872 174.780298 8.53427055 184.456414 8.53427055 135.465627 131.534271 133.19915 131.534271"></polygon>
            <polygon id="Path-Copy" fill="#222222" transform="translate(346.2282, 70.0343) rotate(180) translate(-346.2282, -70.0343)" points="346.315379 28.7582252 305.431609 131.534271 302.903614 131.534271 254 8.53427055 263.676116 8.53427055 303.949681 109.566872 344.833451 8.53427055 347.710135 8.53427055 388.419561 109.566872 428.780298 8.53427055 438.456414 8.53427055 389.465627 131.534271 387.19915 131.534271"></polygon>
            <path d="M253.833233,8.89315727 L253.833233,15.8521796 L235.670443,15.8521796 C243.028256,22.5792344 246.707162,29.6542404 246.707162,37.0771975 C246.707162,43.7462606 245.273258,49.0235191 242.405449,52.9089732 C239.53764,56.7944273 236.119443,59.6215301 232.150859,61.3902816 C228.182275,63.1590331 222.895657,64.8987887 216.291006,66.6095484 C209.686354,68.320308 205.543964,69.9295819 203.863833,71.4373701 C202.183703,72.9451582 201.343637,74.6849138 201.343637,76.6566368 C201.343637,78.9763109 202.429929,80.8320502 204.602511,82.2238546 C206.775094,83.6156591 213.524584,84.6305165 224.850981,85.2684269 C236.177379,85.9063372 243.810386,88.0810317 247.750002,91.7925103 C251.689618,95.5039888 253.659427,100.433296 253.659427,106.580433 C253.659427,113.829414 250.50194,119.527114 244.186966,123.673531 C237.871993,127.819949 229.094759,129.893157 217.855265,129.893157 C206.673707,129.893157 198.041312,127.935932 191.95808,124.021482 C185.874849,120.107032 182.833233,114.931259 182.833233,108.494164 C182.833233,98.0556303 190.596595,91.5895388 206.123319,89.0958891 L206.123319,88.747938 C197.490924,86.7182232 193.174727,82.9197568 193.174727,77.352539 C193.174727,71.7273293 198.504796,67.3779404 209.164935,64.3043722 L209.164935,63.9564211 C202.154735,61.8687144 196.839149,58.4037012 193.218178,53.5613816 C189.597207,48.7190619 187.786722,43.3403176 187.786722,37.4251486 C187.786722,29.01633 190.712466,22.1587935 196.563955,16.852539 C202.415445,11.5462845 210.816097,8.89315727 221.765914,8.89315727 L253.833233,8.89315727 Z M217.484632,57.8060739 C223.256061,57.8060739 228.213204,55.7346453 232.356061,51.5917882 C236.498918,47.448931 238.570347,42.4917882 238.570347,36.7203596 C238.570347,30.948931 236.498918,26.0203596 232.356061,21.9346453 C228.213204,17.848931 223.198918,15.8060739 217.313204,15.8060739 C211.484632,15.8060739 206.570347,17.8060739 202.570347,21.8060739 C198.570347,25.8060739 196.570347,30.6632167 196.570347,36.3775025 C196.570347,42.3203596 198.598918,47.3775025 202.656061,51.548931 C206.713204,55.7203596 211.656061,57.8060739 217.484632,57.8060739 Z M219.243972,122.365373 C227.454498,122.365373 233.985599,120.924197 238.837273,118.041844 C243.688948,115.159491 246.114785,111.365373 246.114785,106.659491 C246.114785,97.130079 237.703302,92.3653731 220.880336,92.3653731 C201.703302,92.3653731 192.114785,97.3653731 192.114785,107.365373 C192.114785,117.365373 201.157848,122.365373 219.243972,122.365373 Z" id="Shape" fill="#08539B" transform="translate(218.3332, 69.3932) rotate(22) translate(-218.3332, -69.3932)"></path>
        </g>
    </g>
</svg>